<?xml version="1.0" standalone="no"?>
<!DOCTYPE svg PUBLIC "-//W3C//DTD SVG 20010904//EN"
 "http://www.w3.org/TR/2001/REC-SVG-20010904/DTD/svg10.dtd">
<svg version="1.0" xmlns="http://www.w3.org/2000/svg"
 width="126.000000pt" height="126.000000pt" viewBox="0 0 126.000000 126.000000"
 preserveAspectRatio="xMidYMid meet">
<metadata>
Created by potrace 1.11, written by Peter Selinger 2001-2013
</metadata>
<g transform="translate(0.000000,126.000000) scale(0.100000,-0.100000)"
fill="#000000" stroke="none">
<path d="M415 1216 c-157 -50 -262 -184 -270 -347 -10 -205 127 -375 328 -406
18 -3 33 -6 33 -6 1 -1 5 -36 8 -77 15 -170 34 -246 63 -257 10 -4 38 -23 63
-44 82 -67 179 -80 266 -36 73 37 135 114 149 187 2 8 4 17 4 19 1 2 8 -2 16
-9 13 -10 18 -11 28 -1 9 10 6 17 -15 33 -16 11 -28 24 -28 29 0 6 23 43 50
84 42 62 49 80 45 106 -13 74 -95 95 -148 38 -25 -28 -30 -29 -45 -16 -26 22
-77 46 -117 55 l-35 7 35 49 c47 67 68 136 68 226 -1 169 -109 316 -269 365
-59 18 -174 18 -229 1z m445 -697 c21 -6 51 -22 66 -34 27 -21 28 -25 15 -49
l-14 -25 -49 41 c-38 32 -52 38 -58 28 -6 -9 6 -26 38 -55 l46 -42 -47 -70
c-25 -39 -51 -81 -55 -94 -17 -45 21 -96 76 -103 37 -5 51 5 98 69 24 34 33
42 29 25 -4 -14 -16 -36 -25 -50 -82 -115 -218 -133 -320 -42 -45 40 -55 69
-66 184 -6 61 -4 71 20 112 29 49 69 82 125 102 45 16 74 17 121 3z m255 -27
c4 -12 -49 -112 -61 -112 -2 0 -12 19 -23 41 -21 43 -18 60 14 93 12 12 21 13
40 4 13 -6 26 -17 30 -26z m-109 -122 l6 -35 -27 27 c-24 23 -26 29 -15 43 17
20 28 9 36 -35z m-32 -45 l30 -24 -47 -69 c-56 -83 -74 -93 -104 -57 l-22 25
50 75 c27 41 53 75 57 75 4 -1 20 -11 36 -25z"/>
</g>
</svg>
